<svg width="21" height="20" viewBox="0 0 21 20" fill="none" xmlns="http://www.w3.org/2000/svg">
<g clip-path="url(#clip0_3_158)">
<path d="M10.165 19.33C15.2267 19.33 19.33 15.2267 19.33 10.165C19.33 5.10331 15.2267 1 10.165 1C5.10331 1 1 5.10331 1 10.165C1 15.2267 5.10331 19.33 10.165 19.33Z" stroke="black" stroke-width="1.5" stroke-linecap="round" stroke-linejoin="round"/>
<path d="M7.82495 7.5C8.02087 6.94306 8.40758 6.47342 8.91658 6.17428C9.42558 5.87513 10.024 5.76578 10.6059 5.86559C11.1878 5.96541 11.7156 6.26794 12.0958 6.71961C12.4761 7.17128 12.6842 7.74294 12.6833 8.33333C12.6833 10 10.1833 10.8333 10.1833 10.8333" stroke="black" stroke-width="1.5" stroke-linecap="round" stroke-linejoin="round"/>
<path d="M10.25 14.1667H10.2583" stroke="black" stroke-width="1.5" stroke-linecap="round" stroke-linejoin="round"/>
</g>
<defs>
<clipPath id="clip0_3_158">
<rect width="20" height="20" fill="white" transform="translate(0.25)"/>
</clipPath>
</defs>
</svg>
