<svg width="21" height="21" viewBox="0 0 21 21" fill="none" xmlns="http://www.w3.org/2000/svg">
<g clip-path="url(#clip0_72_12512)">
<path d="M10.2544 1.64212V19.9755" stroke="black" stroke-width="1.66667" stroke-linecap="round" stroke-linejoin="round"/>
<path d="M14.4211 4.97543H8.17106C7.39751 4.97543 6.65565 5.28272 6.10867 5.82971C5.56169 6.37669 5.25439 7.11855 5.25439 7.8921C5.25439 8.66565 5.56169 9.40751 6.10867 9.95449C6.65565 10.5015 7.39751 10.8088 8.17106 10.8088H12.3377C13.1113 10.8088 13.8531 11.1161 14.4001 11.663C14.9471 12.21 15.2544 12.9519 15.2544 13.7254C15.2544 14.499 14.9471 15.2408 14.4001 15.7878C13.8531 16.3348 13.1113 16.6421 12.3377 16.6421H5.25439" stroke="black" stroke-width="1.66667" stroke-linecap="round" stroke-linejoin="round"/>
</g>
<defs>
<clipPath id="clip0_72_12512">
<rect width="20" height="20" fill="white" transform="translate(0.254395 0.808777)"/>
</clipPath>
</defs>
</svg>
