<svg width="21" height="20" viewBox="0 0 21 20" fill="none" xmlns="http://www.w3.org/2000/svg">
<g clip-path="url(#clip0_3_157)">
<path d="M10.4165 12.5C11.7972 12.5 12.9165 11.3807 12.9165 10C12.9165 8.61929 11.7972 7.5 10.4165 7.5C9.03579 7.5 7.9165 8.61929 7.9165 10C7.9165 11.3807 9.03579 12.5 10.4165 12.5Z" stroke="black" stroke-width="1.5" stroke-linecap="round" stroke-linejoin="round"/>
<path d="M16.5831 12.5C16.4722 12.7513 16.4391 13.0302 16.4881 13.3005C16.5371 13.5708 16.666 13.8203 16.8581 14.0167L16.9081 14.0667C17.0631 14.2214 17.186 14.4053 17.2699 14.6076C17.3537 14.8099 17.3969 15.0268 17.3969 15.2458C17.3969 15.4649 17.3537 15.6817 17.2699 15.8841C17.186 16.0864 17.0631 16.2702 16.9081 16.425C16.7533 16.58 16.5695 16.7029 16.3672 16.7868C16.1648 16.8706 15.9479 16.9138 15.7289 16.9138C15.5099 16.9138 15.293 16.8706 15.0907 16.7868C14.8884 16.7029 14.7045 16.58 14.5498 16.425L14.4998 16.375C14.3034 16.1829 14.0539 16.054 13.7836 16.005C13.5133 15.956 13.2344 15.9891 12.9831 16.1C12.7366 16.2056 12.5264 16.381 12.3783 16.6046C12.2303 16.8282 12.1508 17.0902 12.1498 17.3583V17.5C12.1498 17.942 11.9742 18.3659 11.6616 18.6785C11.349 18.9911 10.9251 19.1667 10.4831 19.1667C10.0411 19.1667 9.61714 18.9911 9.30458 18.6785C8.99202 18.3659 8.81642 17.942 8.81642 17.5V17.425C8.80997 17.1492 8.72069 16.8817 8.56018 16.6572C8.39968 16.4328 8.17537 16.2619 7.91642 16.1667C7.66508 16.0557 7.38626 16.0226 7.11593 16.0717C6.8456 16.1207 6.59616 16.2495 6.39976 16.4417L6.34976 16.4917C6.19497 16.6466 6.01115 16.7696 5.80882 16.8534C5.60649 16.9373 5.38962 16.9805 5.17059 16.9805C4.95156 16.9805 4.73469 16.9373 4.53236 16.8534C4.33003 16.7696 4.14621 16.6466 3.99142 16.4917C3.83646 16.3369 3.71353 16.1531 3.62966 15.9507C3.54578 15.7484 3.50261 15.5315 3.50261 15.3125C3.50261 15.0935 3.54578 14.8766 3.62966 14.6743C3.71353 14.4719 3.83646 14.2881 3.99142 14.1333L4.04142 14.0833C4.23354 13.8869 4.36241 13.6375 4.41143 13.3672C4.46044 13.0968 4.42735 12.818 4.31642 12.5667C4.21079 12.3202 4.03539 12.11 3.81181 11.9619C3.58824 11.8139 3.32624 11.7344 3.05809 11.7333H2.91642C2.4744 11.7333 2.05047 11.5577 1.73791 11.2452C1.42535 10.9326 1.24976 10.5087 1.24976 10.0667C1.24976 9.62463 1.42535 9.20071 1.73791 8.88815C2.05047 8.57559 2.4744 8.39999 2.91642 8.39999H2.99142C3.26725 8.39354 3.53476 8.30426 3.75917 8.14375C3.98358 7.98325 4.15452 7.75894 4.24976 7.49999C4.36069 7.24865 4.39378 6.96983 4.34476 6.6995C4.29574 6.42917 4.16687 6.17973 3.97476 5.98333L3.92476 5.93333C3.7698 5.77854 3.64686 5.59473 3.56299 5.39239C3.47912 5.19006 3.43594 4.97319 3.43594 4.75416C3.43594 4.53514 3.47912 4.31826 3.56299 4.11593C3.64686 3.9136 3.7698 3.72978 3.92476 3.57499C4.07954 3.42003 4.26336 3.2971 4.46569 3.21323C4.66802 3.12935 4.8849 3.08618 5.10392 3.08618C5.32295 3.08618 5.53983 3.12935 5.74216 3.21323C5.94449 3.2971 6.1283 3.42003 6.28309 3.57499L6.33309 3.62499C6.52949 3.81711 6.77894 3.94598 7.04927 3.995C7.31959 4.04401 7.59841 4.01092 7.84976 3.89999H7.91642C8.1629 3.79436 8.3731 3.61896 8.52117 3.39538C8.66923 3.17181 8.74869 2.90982 8.74976 2.64166V2.49999C8.74976 2.05797 8.92535 1.63404 9.23791 1.32148C9.55047 1.00892 9.9744 0.833328 10.4164 0.833328C10.8585 0.833328 11.2824 1.00892 11.5949 1.32148C11.9075 1.63404 12.0831 2.05797 12.0831 2.49999V2.57499C12.0842 2.84315 12.1636 3.10514 12.3117 3.32872C12.4597 3.55229 12.6699 3.72769 12.9164 3.83333C13.1678 3.94426 13.4466 3.97735 13.7169 3.92833C13.9872 3.87932 14.2367 3.75044 14.4331 3.55833L14.4831 3.50833C14.6379 3.35337 14.8217 3.23044 15.024 3.14656C15.2264 3.06269 15.4432 3.01952 15.6623 3.01952C15.8813 3.01952 16.0982 3.06269 16.3005 3.14656C16.5028 3.23044 16.6866 3.35337 16.8414 3.50833C16.9964 3.66312 17.1193 3.84693 17.2032 4.04926C17.2871 4.25159 17.3302 4.46847 17.3302 4.68749C17.3302 4.90652 17.2871 5.1234 17.2032 5.32573C17.1193 5.52806 16.9964 5.71187 16.8414 5.86666L16.7914 5.91666C16.5993 6.11306 16.4704 6.36251 16.4214 6.63284C16.3724 6.90317 16.4055 7.18198 16.5164 7.43333V7.49999C16.6221 7.74647 16.7975 7.95668 17.021 8.10474C17.2446 8.2528 17.5066 8.33226 17.7748 8.33333H17.9164C18.3585 8.33333 18.7824 8.50892 19.0949 8.82148C19.4075 9.13404 19.5831 9.55797 19.5831 9.99999C19.5831 10.442 19.4075 10.8659 19.0949 11.1785C18.7824 11.4911 18.3585 11.6667 17.9164 11.6667H17.8414C17.5733 11.6677 17.3113 11.7472 17.0877 11.8952C16.8641 12.0433 16.6887 12.2535 16.5831 12.5Z" stroke="black" stroke-width="1.5" stroke-linecap="round" stroke-linejoin="round"/>
</g>
<defs>
<clipPath id="clip0_3_157">
<rect width="20" height="20" fill="white" transform="translate(0.416504)"/>
</clipPath>
</defs>
</svg>
